<?xml version="1.0" standalone="no"?>
<!DOCTYPE svg PUBLIC "-//W3C//DTD SVG 20010904//EN"
 "http://www.w3.org/TR/2001/REC-SVG-20010904/DTD/svg10.dtd">
<svg version="1.0" xmlns="http://www.w3.org/2000/svg"
 width="570.000000pt" height="525.000000pt" viewBox="0 0 570.000000 525.000000"
 preserveAspectRatio="xMidYMid meet">

<g transform="translate(0.000000,525.000000) scale(0.100000,-0.100000)"
fill="#000000" stroke="none">
<path d="M2783 5243 c9 -2 23 -2 30 0 6 3 -1 5 -18 5 -16 0 -22 -2 -12 -5z"/>
<path d="M2598 5233 c7 -3 16 -2 19 1 4 3 -2 6 -13 5 -11 0 -14 -3 -6 -6z"/>
<path d="M2688 5233 c12 -2 30 -2 40 0 9 3 -1 5 -23 4 -22 0 -30 -2 -17 -4z"/>
<path d="M2850 5220 c0 -5 5 -10 11 -10 5 0 7 5 4 10 -3 6 -8 10 -11 10 -2 0
-4 -4 -4 -10z"/>
<path d="M2623 5199 c-66 -12 -114 -39 -165 -92 -54 -56 -233 -318 -268 -392
-13 -27 -47 -99 -76 -160 -52 -108 -77 -179 -88 -242 -5 -30 -3 -32 42 -49 26
-10 52 -21 57 -25 16 -11 180 -56 326 -89 563 -129 686 -152 1029 -195 30 -4
98 -20 150 -35 52 -16 133 -36 180 -44 78 -15 111 -28 99 -41 -6 -6 -171 22
-205 35 -49 19 -220 58 -279 64 -176 17 -441 65 -650 116 -44 11 -109 27 -145
35 -333 75 -429 101 -539 147 -70 29 -74 30 -84 12 -6 -10 -26 -32 -44 -49
-28 -26 -32 -34 -21 -43 29 -24 232 -102 265 -102 10 0 23 -4 29 -8 28 -26
390 -123 659 -178 108 -21 302 -65 560 -126 206 -48 463 -125 484 -144 30 -27
0 -26 -87 4 -125 43 -367 108 -524 142 -73 15 -203 43 -288 63 -85 20 -189 43
-230 51 -175 37 -468 117 -555 151 -34 14 -68 25 -76 25 -8 0 -39 9 -69 21
-58 22 -218 52 -232 43 -11 -7 -145 30 -238 66 -152 58 -375 151 -385 161 -5
5 -15 9 -23 9 -12 0 -12 -3 -2 -15 7 -8 17 -15 22 -15 5 0 28 -13 52 -29 23
-16 87 -49 142 -74 119 -53 371 -162 398 -171 15 -5 17 -9 7 -19 -14 -14 -62
2 -231 75 -225 98 -310 139 -339 162 -8 6 -24 16 -37 21 -12 6 -48 34 -79 63
-54 51 -85 65 -85 40 0 -7 -3 -23 -6 -34 -5 -18 9 -31 93 -86 54 -35 127 -81
163 -100 144 -80 465 -218 504 -218 16 0 79 119 72 135 -6 17 15 10 109 -35
33 -16 74 -32 90 -36 17 -4 72 -27 122 -51 51 -23 99 -43 107 -43 7 0 47 -11
87 -24 41 -13 121 -35 179 -50 169 -43 430 -127 785 -251 105 -36 204 -70 220
-75 17 -5 53 -15 80 -24 28 -8 104 -31 171 -50 156 -46 298 -102 459 -181 72
-35 160 -76 197 -89 38 -14 76 -30 85 -36 61 -35 280 -113 364 -130 54 -10
100 -33 89 -44 -3 -2 -26 1 -50 9 -25 7 -67 17 -95 23 -27 6 -77 18 -110 27
-33 8 -89 20 -125 25 -145 21 -317 50 -355 60 -22 6 -62 15 -90 19 -27 5 -86
19 -130 30 -44 12 -92 20 -107 17 -16 -3 -28 -1 -28 4 0 5 -11 12 -24 16 -14
3 -23 11 -20 19 4 10 12 10 42 -1 20 -7 49 -13 65 -14 15 0 60 -9 100 -21 168
-49 398 -91 414 -76 6 7 -167 96 -232 120 -77 29 -233 74 -300 86 -33 7 -96
23 -140 36 -44 13 -145 42 -225 65 -80 23 -161 48 -181 55 -20 8 -65 21 -100
30 -35 9 -86 24 -114 35 -27 10 -95 28 -150 40 -99 22 -241 72 -260 91 -13 13
25 5 127 -27 43 -13 109 -31 146 -39 38 -8 95 -24 126 -36 32 -12 102 -34 155
-49 53 -15 143 -42 201 -60 99 -30 265 -78 355 -101 21 -5 57 -7 80 -3 l40 7
-35 15 c-19 8 -70 23 -112 33 -134 32 -450 135 -774 252 -83 30 -168 57 -189
61 -22 4 -66 18 -99 31 -34 13 -106 35 -161 50 -55 15 -136 37 -180 50 -44 14
-114 34 -155 46 -41 12 -104 36 -140 54 -36 17 -101 44 -145 60 -44 15 -87 34
-96 41 -8 8 -21 14 -27 14 -22 0 -122 -192 -162 -309 -26 -77 -28 -262 -4
-355 37 -143 16 -218 -97 -343 -113 -125 -153 -235 -153 -428 0 -125 1 -134
38 -240 39 -115 74 -184 154 -309 26 -41 70 -111 97 -156 142 -232 147 -239
273 -379 13 -14 35 -51 50 -81 26 -53 27 -63 32 -265 5 -193 7 -213 28 -253
12 -23 26 -42 30 -42 20 0 153 322 141 341 -5 8 -8 37 -8 64 1 49 1 49 11 18
6 -18 14 -33 18 -33 4 0 15 26 25 58 19 61 28 72 60 72 16 0 29 17 55 71 35
74 53 90 101 91 35 1 64 -23 91 -77 34 -66 34 -66 89 -29 28 18 87 45 132 59
44 14 106 41 136 59 67 41 200 84 296 96 38 5 131 10 205 10 74 0 171 7 215
15 44 8 106 15 138 15 53 0 62 -3 88 -31 30 -32 36 -53 19 -64 -6 -3 -10 0
-10 8 0 7 -11 24 -25 37 -20 19 -35 23 -84 22 -33 0 -86 -6 -118 -11 -32 -6
-141 -13 -243 -15 -240 -6 -388 -40 -494 -116 -23 -17 -72 -39 -109 -49 -82
-24 -177 -78 -177 -101 0 -4 18 -20 40 -35 36 -25 46 -27 97 -22 46 5 62 12
92 40 20 19 45 39 56 45 11 5 92 13 180 17 99 5 163 12 171 19 11 12 280 59
409 72 36 4 79 1 105 -6 46 -12 130 -59 130 -72 0 -15 -25 -8 -64 19 -38 27
-44 28 -160 28 -69 -1 -159 -8 -211 -17 -49 -10 -112 -20 -138 -23 -27 -4 -46
-9 -43 -12 3 -3 47 -10 98 -14 93 -9 211 -39 258 -65 14 -8 43 -25 64 -37 51
-28 109 -127 76 -127 -6 0 -20 20 -32 44 -19 39 -31 49 -112 90 -119 60 -223
79 -441 79 -190 1 -281 -16 -326 -59 -36 -34 -39 -77 -6 -98 17 -12 75 -16
272 -21 295 -6 297 -6 318 -23 10 -9 27 -11 46 -7 27 6 30 3 41 -29 6 -20 21
-41 32 -47 11 -6 47 -35 79 -65 32 -30 62 -54 67 -54 12 0 256 -272 288 -321
74 -116 112 -214 129 -331 7 -54 11 -56 109 -60 37 -2 61 -8 64 -15 3 -10 -15
-13 -66 -13 -57 0 -82 6 -138 32 -79 36 -168 94 -203 132 -14 14 -28 26 -32
26 -46 0 -95 -356 -54 -390 8 -7 61 -17 118 -21 260 -22 324 -29 351 -35 26
-6 92 2 222 27 81 16 84 23 90 200 8 210 7 240 -2 348 -10 102 -22 121 -86
137 -27 6 -28 5 -28 -35 0 -84 -17 -36 -40 117 -13 86 -24 174 -24 195 0 35
-5 43 -57 83 -31 25 -78 76 -105 117 -27 40 -64 90 -84 113 -103 120 -252 363
-280 457 -24 78 -45 97 -117 103 -77 6 -283 -17 -328 -37 -22 -9 -82 -23 -134
-29 -52 -6 -97 -12 -100 -14 -3 -3 -60 -9 -126 -16 -326 -31 -454 -73 -479
-156 -18 -60 77 -77 178 -31 64 29 76 32 76 17 0 -23 -146 -78 -190 -72 -47 7
-61 15 -75 42 -23 45 -18 67 24 109 44 44 114 71 201 77 32 2 73 11 92 20 l33
15 -42 -5 c-57 -6 -115 8 -195 46 l-68 32 -37 -31 c-21 -16 -50 -33 -65 -36
-46 -12 -130 -99 -178 -186 -59 -108 -83 -107 -29 1 51 100 120 170 218 218
33 16 63 35 66 41 9 14 -23 48 -60 63 -42 18 -158 108 -254 197 -44 41 -92 82
-107 93 -15 11 -43 55 -66 105 -22 47 -59 127 -83 176 -40 85 -67 182 -79 288
-6 52 8 65 19 17 4 -16 11 -32 16 -35 5 -4 9 -19 9 -34 0 -31 51 -175 83 -236
68 -129 168 -287 210 -335 27 -30 90 -85 141 -122 50 -38 106 -82 125 -99 140
-125 302 -171 402 -114 74 41 180 128 212 171 37 53 31 74 -31 102 -110 50
-212 155 -212 218 0 29 3 34 23 33 12 0 49 3 82 7 35 3 75 2 95 -4 77 -23 172
-63 199 -83 16 -12 34 -18 40 -15 6 4 47 52 91 107 77 94 93 109 103 92 2 -5
2 -2 0 5 -4 19 36 74 49 66 6 -4 8 -2 5 4 -10 15 3 43 16 35 6 -3 7 -1 3 5 -4
6 11 46 32 89 22 43 49 103 61 133 22 59 51 219 51 288 0 40 11 54 25 32 3 -5
32 -17 63 -26 31 -9 62 -20 67 -24 6 -5 28 -11 50 -15 22 -4 76 -18 120 -30
44 -13 98 -27 120 -30 64 -10 239 -47 247 -51 13 -8 353 -44 415 -44 75 0 82
14 26 57 -85 66 -197 115 -463 203 -185 61 -296 142 -334 244 -15 38 -17 63
-12 115 16 160 18 225 7 315 -12 99 -69 360 -95 434 -9 23 -23 113 -32 200
-21 203 -26 225 -34 142 -8 -75 4 -312 19 -385 12 -55 32 -131 80 -300 50
-174 55 -455 9 -455 -7 0 -8 14 -4 38 24 130 15 255 -30 417 -85 303 -109 460
-103 662 3 86 -17 211 -41 265 -9 19 -24 28 -61 36 -27 7 -100 34 -162 62
-148 67 -324 125 -423 140 -43 6 -108 19 -144 27 -36 8 -110 21 -165 28 -55 8
-147 21 -205 29 -141 19 -226 24 -277 15z m922 -277 c45 -5 94 -18 138 -39 56
-27 70 -39 83 -70 29 -68 29 -97 -2 -163 -50 -109 -102 -119 -349 -69 -197 39
-322 77 -660 198 -57 20 -68 45 -40 87 24 37 72 53 188 63 110 10 528 6 642
-7z m492 -4769 c6 -27 14 -56 18 -65 4 -10 3 -18 -2 -18 -9 0 -43 88 -43 114
0 33 16 14 27 -31z"/>
<path d="M2920 4910 c-58 -4 -117 -13 -132 -18 -31 -13 -65 -59 -52 -71 15
-12 192 -77 304 -112 58 -17 124 -38 147 -45 100 -32 398 -86 443 -80 52 7 89
39 116 98 15 34 16 46 6 86 -22 82 -76 111 -247 132 -123 15 -444 21 -585 10z"/>
<path d="M2923 5203 c9 -2 25 -2 35 0 9 3 1 5 -18 5 -19 0 -27 -2 -17 -5z"/>
<path d="M3013 5193 c9 -2 23 -2 30 0 6 3 -1 5 -18 5 -16 0 -22 -2 -12 -5z"/>
<path d="M3110 5186 c0 -2 9 -6 20 -9 11 -3 20 -1 20 4 0 5 -9 9 -20 9 -11 0
-20 -2 -20 -4z"/>
<path d="M3258 5153 c7 -3 16 -2 19 1 4 3 -2 6 -13 5 -11 0 -14 -3 -6 -6z"/>
<path d="M3318 5143 c6 -2 18 -2 25 0 6 3 1 5 -13 5 -14 0 -19 -2 -12 -5z"/>
<path d="M3415 5130 c3 -5 10 -10 16 -10 5 0 9 5 9 10 0 6 -7 10 -16 10 -8 0
-12 -4 -9 -10z"/>
<path d="M3521 5106 c2 -2 18 -6 34 -10 22 -5 26 -4 15 4 -14 9 -59 15 -49 6z"/>
<path d="M3615 5080 c-3 -5 -1 -10 4 -10 6 0 11 5 11 10 0 6 -2 10 -4 10 -3 0
-8 -4 -11 -10z"/>
<path d="M2349 5053 c-13 -16 -12 -17 4 -4 9 7 17 15 17 17 0 8 -8 3 -21 -13z"/>
<path d="M3688 5053 c7 -3 16 -2 19 1 4 3 -2 6 -13 5 -11 0 -14 -3 -6 -6z"/>
<path d="M3735 5040 c3 -5 8 -10 11 -10 2 0 4 5 4 10 0 6 -5 10 -11 10 -5 0
-7 -4 -4 -10z"/>
<path d="M2265 4949 c-4 -6 -5 -12 -2 -15 2 -3 7 2 10 11 7 17 1 20 -8 4z"/>
<path d="M4063 4913 c9 -2 23 -2 30 0 6 3 -1 5 -18 5 -16 0 -22 -2 -12 -5z"/>
<path d="M4164 4907 c-3 -8 -4 -30 -1 -49 3 -28 4 -27 6 12 1 33 4 41 11 30 6
-9 10 -10 10 -3 0 19 -20 26 -26 10z"/>
<path d="M4080 4871 c0 -5 9 -7 20 -4 11 3 20 7 20 9 0 2 -9 4 -20 4 -11 0
-20 -4 -20 -9z"/>
<path d="M4145 4790 c3 -5 8 -10 11 -10 2 0 4 5 4 10 0 6 -5 10 -11 10 -5 0
-7 -4 -4 -10z"/>
<path d="M4173 4690 c0 -36 2 -50 4 -32 2 17 2 47 0 65 -2 17 -4 3 -4 -33z"/>
<path d="M2087 4583 c-4 -3 -7 -13 -7 -22 1 -13 3 -13 11 2 11 19 8 33 -4 20z"/>
<path d="M4182 4560 c0 -19 2 -27 5 -17 2 9 2 25 0 35 -3 9 -5 1 -5 -18z"/>
<path d="M4196 4433 c10 -40 14 -41 14 -5 0 18 -5 32 -10 32 -6 0 -8 -11 -4
-27z"/>
<path d="M1258 4403 c6 -2 18 -2 25 0 6 3 1 5 -13 5 -14 0 -19 -2 -12 -5z"/>
<path d="M1180 4386 c0 -4 112 -59 175 -84 174 -71 312 -124 381 -146 85 -27
212 -52 220 -43 7 7 -50 37 -71 37 -8 0 -23 4 -33 9 -42 22 -151 62 -192 70
-25 5 -70 19 -100 31 -251 99 -380 142 -380 126z"/>
<path d="M4212 4330 c0 -14 2 -19 5 -12 2 6 2 18 0 25 -3 6 -5 1 -5 -13z"/>
<path d="M1610 4276 c0 -2 7 -7 16 -10 8 -3 12 -2 9 4 -6 10 -25 14 -25 6z"/>
<path d="M1778 4213 c7 -3 16 -2 19 1 4 3 -2 6 -13 5 -11 0 -14 -3 -6 -6z"/>
<path d="M1487 4029 c7 -7 15 -10 18 -7 3 3 -2 9 -12 12 -14 6 -15 5 -6 -5z"/>
<path d="M4301 3984 c0 -11 3 -14 6 -6 3 7 2 16 -1 19 -3 4 -6 -2 -5 -13z"/>
<path d="M1723 3933 c9 -2 23 -2 30 0 6 3 -1 5 -18 5 -16 0 -22 -2 -12 -5z"/>
<path d="M4312 3915 c0 -16 2 -22 5 -12 2 9 2 23 0 30 -3 6 -5 -1 -5 -18z"/>
<path d="M4323 3800 c0 -25 2 -35 4 -22 2 12 2 32 0 45 -2 12 -4 2 -4 -23z"/>
<path d="M4322 3630 c0 -19 2 -27 5 -17 2 9 2 25 0 35 -3 9 -5 1 -5 -18z"/>
<path d="M4313 3500 c0 -36 2 -50 4 -32 2 17 2 47 0 65 -2 17 -4 3 -4 -33z"/>
<path d="M1720 3535 c0 -8 5 -15 10 -15 6 0 10 7 10 15 0 8 -4 15 -10 15 -5 0
-10 -7 -10 -15z"/>
<path d="M1720 3485 c0 -8 5 -15 10 -15 6 0 10 7 10 15 0 8 -4 15 -10 15 -5 0
-10 -7 -10 -15z"/>
<path d="M1741 3404 c0 -11 3 -14 6 -6 3 7 2 16 -1 19 -3 4 -6 -2 -5 -13z"/>
<path d="M4335 3380 c3 -5 8 -10 11 -10 2 0 4 5 4 10 0 6 -5 10 -11 10 -5 0
-7 -4 -4 -10z"/>
<path d="M1751 3354 c0 -11 3 -14 6 -6 3 7 2 16 -1 19 -3 4 -6 -2 -5 -13z"/>
<path d="M4380 3316 c0 -2 8 -10 18 -17 15 -13 16 -12 3 4 -13 16 -21 21 -21
13z"/>
<path d="M1761 3294 c0 -11 3 -14 6 -6 3 7 2 16 -1 19 -3 4 -6 -2 -5 -13z"/>
<path d="M4628 3193 c7 -3 16 -2 19 1 4 3 -2 6 -13 5 -11 0 -14 -3 -6 -6z"/>
<path d="M3981 3063 c1 -53 6 -49 11 10 2 20 0 37 -4 37 -4 0 -8 -21 -7 -47z"/>
<path d="M4878 3103 c6 -2 18 -2 25 0 6 3 1 5 -13 5 -14 0 -19 -2 -12 -5z"/>
<path d="M4605 3070 c3 -5 16 -10 28 -10 18 0 19 2 7 10 -20 13 -43 13 -35 0z"/>
<path d="M1625 3020 c-3 -5 -1 -10 4 -10 6 0 11 5 11 10 0 6 -2 10 -4 10 -3 0
-8 -4 -11 -10z"/>
<path d="M5075 3010 c3 -5 11 -10 16 -10 6 0 7 5 4 10 -3 6 -11 10 -16 10 -6
0 -7 -4 -4 -10z"/>
<path d="M4468 2963 c7 -3 16 -2 19 1 4 3 -2 6 -13 5 -11 0 -14 -3 -6 -6z"/>
<path d="M4518 2953 c6 -2 18 -2 25 0 6 3 1 5 -13 5 -14 0 -19 -2 -12 -5z"/>
<path d="M4580 2940 c0 -5 5 -10 11 -10 5 0 7 5 4 10 -3 6 -8 10 -11 10 -2 0
-4 -4 -4 -10z"/>
<path d="M4698 2913 c6 -2 18 -2 25 0 6 3 1 5 -13 5 -14 0 -19 -2 -12 -5z"/>
<path d="M4818 2903 c7 -3 16 -2 19 1 4 3 -2 6 -13 5 -11 0 -14 -3 -6 -6z"/>
<path d="M4890 2889 c0 -5 11 -9 25 -9 14 0 25 2 25 4 0 2 -11 6 -25 8 -14 3
-25 1 -25 -3z"/>
<path d="M1527 2876 c-10 -8 -14 -17 -9 -20 5 -3 17 3 27 14 21 23 9 26 -18 6z"/>
<path d="M1399 2853 c-13 -16 -12 -17 4 -4 16 13 21 21 13 21 -2 0 -10 -8 -17
-17z"/>
<path d="M1428 2833 c-70 -37 -191 -172 -247 -277 -45 -86 -41 -136 29 -314
18 -46 36 -114 41 -150 13 -101 55 -281 79 -337 12 -27 58 -124 103 -215 44
-91 95 -198 111 -239 17 -41 36 -76 42 -78 7 -2 33 26 58 62 41 57 58 71 124
104 92 45 178 65 264 59 l63 -4 0 28 c0 21 -15 43 -62 88 -68 67 -68 66 -335
490 -33 52 -73 122 -90 154 -43 86 -97 256 -115 369 -16 96 -16 99 5 165 27
81 27 83 -1 103 -21 15 -25 15 -69 -8z"/>
<path d="M1145 2559 c-4 -6 -5 -12 -2 -15 2 -3 7 2 10 11 7 17 1 20 -8 4z"/>
<path d="M3761 2507 c-13 -21 -12 -21 5 -5 10 10 16 20 13 22 -3 3 -11 -5 -18
-17z"/>
<path d="M1112 2470 c0 -19 2 -27 5 -17 2 9 2 25 0 35 -3 9 -5 1 -5 -18z"/>
<path d="M700 2420 c33 -5 34 -6 10 -13 -14 -4 -35 -7 -48 -7 -28 0 -190 -56
-214 -74 -17 -12 -17 -16 -1 -57 9 -24 24 -55 33 -69 23 -35 61 -151 79 -245
16 -79 16 -79 56 -93 22 -8 59 -21 83 -29 30 -10 70 -42 135 -106 80 -80 92
-89 95 -69 4 27 -87 226 -138 302 -20 30 -46 73 -58 95 -11 22 -39 63 -61 90
-23 27 -41 56 -41 64 0 17 59 -48 92 -102 13 -21 42 -66 65 -101 53 -82 149
-275 164 -329 11 -45 46 -132 84 -212 73 -154 114 -244 125 -280 7 -22 19 -52
27 -68 16 -32 41 -160 78 -407 15 -96 29 -180 31 -187 2 -7 27 -24 56 -39 29
-14 60 -32 68 -39 8 -7 35 -21 60 -30 69 -26 80 -30 160 -69 41 -20 113 -61
160 -90 47 -30 105 -60 130 -66 47 -13 80 -26 165 -65 198 -91 245 -103 245
-63 0 12 -8 30 -17 40 -12 14 -19 47 -24 121 -8 111 -19 150 -59 212 -59 88
-78 123 -105 186 -15 37 -45 88 -66 114 -21 26 -39 51 -39 56 0 4 -20 33 -44
63 -25 29 -66 89 -92 132 -26 44 -52 86 -59 94 -7 8 -27 42 -45 74 -35 65 -89
136 -105 136 -13 0 -62 -77 -70 -113 -4 -15 -12 -30 -17 -33 -12 -8 -66 43
-74 70 -13 47 -106 279 -124 309 -10 18 -32 68 -49 112 -17 44 -45 103 -61
130 -16 28 -40 73 -54 100 -13 28 -39 70 -57 94 -19 24 -50 66 -69 92 -103
141 -234 274 -323 328 -55 34 -37 38 20 5 105 -61 260 -228 409 -442 20 -29
39 -51 41 -48 2 2 -1 25 -7 50 -6 26 -15 82 -21 124 -6 44 -28 122 -51 180
-43 109 -63 130 -115 117 -13 -3 -35 3 -55 15 -18 11 -51 20 -73 20 -34 1 -37
3 -24 13 13 10 -10 12 -115 12 -72 0 -115 -2 -96 -5z"/>
<path d="M3696 2413 c-6 -14 -5 -15 5 -6 7 7 10 15 7 18 -3 3 -9 -2 -12 -12z"/>
<path d="M1058 2403 c7 -3 16 -2 19 1 4 3 -2 6 -13 5 -11 0 -14 -3 -6 -6z"/>
<path d="M3168 2353 c-32 -5 -36 -28 -13 -73 25 -49 165 -150 207 -150 22 0
28 -8 47 -65 19 -55 34 -77 93 -136 61 -62 74 -70 97 -64 38 10 230 35 269 35
17 0 32 3 32 6 0 4 -13 22 -30 41 -16 18 -30 37 -30 41 0 4 -29 32 -65 62 -36
30 -68 65 -71 76 -3 12 -18 33 -32 47 -29 27 -160 96 -232 122 -25 9 -65 26
-90 37 -45 20 -131 30 -182 21z"/>
<path d="M3609 2313 c-13 -16 -12 -17 4 -4 16 13 21 21 13 21 -2 0 -10 -8 -17
-17z"/>
<path d="M3690 2197 c0 -2 15 -16 33 -33 l32 -29 -29 33 c-28 30 -36 37 -36
29z"/>
<path d="M3767 2089 c7 -7 15 -10 18 -7 3 3 -2 9 -12 12 -14 6 -15 5 -6 -5z"/>
<path d="M3350 1964 c-25 -26 -85 -73 -135 -106 l-90 -59 75 6 c41 4 102 11
135 16 33 6 90 15 128 21 37 6 67 14 67 18 0 4 -26 32 -57 60 -32 29 -63 61
-68 71 -10 18 -15 15 -55 -27z"/>
<path d="M3875 1980 c3 -5 8 -10 11 -10 2 0 4 5 4 10 0 6 -5 10 -11 10 -5 0
-7 -4 -4 -10z"/>
<path d="M881 1627 c2 -1 13 -9 24 -17 19 -14 19 -14 6 3 -7 9 -18 17 -24 17
-6 0 -8 -1 -6 -3z"/>
<path d="M4216 1527 c3 -10 9 -15 12 -12 3 3 0 11 -7 18 -10 9 -11 8 -5 -6z"/>
<path d="M2633 1432 c-27 -90 -22 -170 17 -312 l35 -125 -3 -295 c-1 -162 0
-345 4 -407 7 -125 -1 -118 89 -78 75 33 198 54 352 60 76 3 175 8 220 11 l81
6 22 52 c11 29 40 74 64 102 69 79 112 148 125 200 7 27 21 79 32 116 10 36
19 79 19 95 0 40 -32 137 -68 207 -22 42 -29 68 -25 88 7 37 -12 44 -162 53
-66 4 -130 11 -142 16 -14 5 -34 4 -50 -2 -16 -6 -64 -11 -108 -11 -110 -2
-155 22 -155 83 0 18 -5 19 -49 13 -36 -5 -58 -2 -82 10 -49 24 -53 20 -21
-26 102 -149 141 -242 80 -187 -28 25 -111 155 -155 244 -37 73 -76 134 -90
140 -8 3 -19 -16 -30 -53z"/>
<path d="M1925 1410 c-11 -5 -31 -9 -45 -9 -31 -1 -170 -66 -170 -80 0 -5 17
-30 38 -55 31 -38 106 -154 188 -292 12 -20 40 -59 63 -87 94 -117 113 -147
164 -247 29 -58 74 -139 99 -180 26 -41 53 -97 60 -125 6 -27 16 -54 20 -60
12 -14 10 203 -3 290 -10 68 -14 77 -40 91 -16 8 -35 27 -43 42 -8 16 -33 46
-55 68 -41 40 -126 177 -182 294 -25 52 -32 82 -36 153 -4 61 -2 87 6 87 6 0
11 -15 11 -34 0 -56 17 -130 44 -187 63 -135 184 -315 200 -298 3 3 -16 47
-42 99 l-47 95 -2 170 c-1 94 -2 184 -2 200 -1 25 -9 34 -46 53 -47 23 -139
29 -180 12z"/>
<path d="M2541 1364 c0 -11 3 -14 6 -6 3 7 2 16 -1 19 -3 4 -6 -2 -5 -13z"/>
<path d="M4356 1338 c10 -14 21 -24 23 -22 3 3 -6 15 -18 27 l-24 22 19 -27z"/>
<path d="M2583 1300 c0 -30 2 -43 4 -27 2 15 2 39 0 55 -2 15 -4 2 -4 -28z"/>
<path d="M2451 1314 c0 -11 3 -14 6 -6 3 7 2 16 -1 19 -3 4 -6 -2 -5 -13z"/>
<path d="M2461 1268 c-1 -31 15 -46 32 -29 9 9 8 11 -5 6 -13 -5 -18 0 -21 22
l-4 28 -2 -27z"/>
<path d="M2591 1204 c0 -11 3 -14 6 -6 3 7 2 16 -1 19 -3 4 -6 -2 -5 -13z"/>
<path d="M1125 1170 c3 -5 8 -10 11 -10 2 0 4 5 4 10 0 6 -5 10 -11 10 -5 0
-7 -4 -4 -10z"/>
<path d="M3636 1171 c-3 -5 5 -11 19 -13 30 -6 32 -2 6 12 -11 6 -22 6 -25 1z"/>
<path d="M1141 1134 c0 -11 3 -14 6 -6 3 7 2 16 -1 19 -3 4 -6 -2 -5 -13z"/>
<path d="M3630 1100 c0 -5 5 -10 10 -10 6 0 10 5 10 10 0 6 -4 10 -10 10 -5 0
-10 -4 -10 -10z"/>
<path d="M3717 1099 c7 -7 15 -10 18 -7 3 3 -2 9 -12 12 -14 6 -15 5 -6 -5z"/>
<path d="M4575 1090 c4 -6 11 -8 16 -5 14 9 11 15 -7 15 -8 0 -12 -5 -9 -10z"/>
<path d="M1160 1070 c0 -5 5 -10 11 -10 5 0 7 5 4 10 -3 6 -8 10 -11 10 -2 0
-4 -4 -4 -10z"/>
<path d="M3757 1069 c7 -7 15 -10 18 -7 3 3 -2 9 -12 12 -14 6 -15 5 -6 -5z"/>
<path d="M2631 1054 c0 -11 3 -14 6 -6 3 7 2 16 -1 19 -3 4 -6 -2 -5 -13z"/>
<path d="M3645 1060 c3 -5 8 -10 11 -10 2 0 4 5 4 10 0 6 -5 10 -11 10 -5 0
-7 -4 -4 -10z"/>
<path d="M3800 1030 c0 -5 9 -14 20 -20 11 -6 20 -9 20 -8 0 2 -9 11 -20 21
-11 9 -20 13 -20 7z"/>
<path d="M4602 1000 c0 -14 2 -19 5 -12 2 6 2 18 0 25 -3 6 -5 1 -5 -13z"/>
<path d="M2642 980 c0 -14 2 -19 5 -12 2 6 2 18 0 25 -3 6 -5 1 -5 -13z"/>
<path d="M3701 964 c0 -11 3 -14 6 -6 3 7 2 16 -1 19 -3 4 -6 -2 -5 -13z"/>
<path d="M3880 976 c0 -2 8 -10 18 -17 15 -13 16 -12 3 4 -13 16 -21 21 -21
13z"/>
<path d="M1192 950 c0 -14 2 -19 5 -12 2 6 2 18 0 25 -3 6 -5 1 -5 -13z"/>
<path d="M2295 930 c-3 -5 -1 -10 4 -10 6 0 11 5 11 10 0 6 -2 10 -4 10 -3 0
-8 -4 -11 -10z"/>
<path d="M3712 895 c0 -16 2 -22 5 -12 2 9 2 23 0 30 -3 6 -5 -1 -5 -18z"/>
<path d="M1202 870 c0 -19 2 -27 5 -17 2 9 2 25 0 35 -3 9 -5 1 -5 -18z"/>
<path d="M3981 861 c7 -10 21 -24 33 -31 15 -9 12 -3 -8 19 -34 35 -41 39 -25
12z"/>
<path d="M4632 860 c0 -14 2 -19 5 -12 2 6 2 18 0 25 -3 6 -5 1 -5 -13z"/>
<path d="M2266 817 c3 -10 9 -15 12 -12 3 3 0 11 -7 18 -10 9 -11 8 -5 -6z"/>
<path d="M4030 806 c0 -9 76 -86 85 -86 10 0 5 6 -40 50 -25 24 -45 40 -45 36z"/>
<path d="M1210 780 c0 -5 5 -10 11 -10 5 0 7 5 4 10 -3 6 -8 10 -11 10 -2 0
-4 -4 -4 -10z"/>
<path d="M3712 765 c0 -16 2 -22 5 -12 2 9 2 23 0 30 -3 6 -5 -1 -5 -18z"/>
<path d="M2316 727 c3 -10 9 -15 12 -12 3 3 0 11 -7 18 -10 9 -11 8 -5 -6z"/>
<path d="M4096 685 c-11 -8 -17 -17 -14 -20 2 -3 13 4 23 15 21 23 18 25 -9 5z"/>
<path d="M1243 645 c0 -22 2 -30 4 -17 2 12 2 30 0 40 -3 9 -5 -1 -4 -23z"/>
<path d="M4114 658 c-38 -44 -47 -59 -50 -86 -2 -15 -6 -41 -10 -58 -5 -28 -1
-35 43 -71 65 -54 122 -90 156 -98 32 -8 32 -9 12 84 -14 68 -99 241 -121 248
-6 2 -19 -7 -30 -19z"/>
<path d="M2643 595 c0 -33 2 -45 4 -27 2 18 2 45 0 60 -2 15 -4 0 -4 -33z"/>
<path d="M3671 614 c0 -11 3 -14 6 -6 3 7 2 16 -1 19 -3 4 -6 -2 -5 -13z"/>
<path d="M2361 604 c0 -11 3 -14 6 -6 3 7 2 16 -1 19 -3 4 -6 -2 -5 -13z"/>
<path d="M4782 590 c0 -19 2 -27 5 -17 2 9 2 25 0 35 -3 9 -5 1 -5 -18z"/>
<path d="M1251 574 c0 -11 3 -14 6 -6 3 7 2 16 -1 19 -3 4 -6 -2 -5 -13z"/>
<path d="M3662 555 c0 -16 2 -22 5 -12 2 9 2 23 0 30 -3 6 -5 -1 -5 -18z"/>
<path d="M2373 485 c0 -38 2 -53 4 -32 2 20 2 52 0 70 -2 17 -4 1 -4 -38z"/>
<path d="M4021 524 c0 -11 3 -14 6 -6 3 7 2 16 -1 19 -3 4 -6 -2 -5 -13z"/>
<path d="M3607 487 c-3 -8 -2 -29 3 -48 7 -28 8 -30 9 -9 1 14 4 35 7 48 7 23
-10 31 -19 9z"/>
<path d="M4811 454 c0 -11 3 -14 6 -6 3 7 2 16 -1 19 -3 4 -6 -2 -5 -13z"/>
<path d="M2643 360 c0 -47 2 -66 4 -42 2 23 2 61 0 85 -2 23 -4 4 -4 -43z"/>
<path d="M3652 370 c0 -14 2 -19 5 -12 2 6 2 18 0 25 -3 6 -5 1 -5 -13z"/>
<path d="M3516 365 c-11 -8 -15 -15 -9 -15 6 0 16 7 23 15 16 19 11 19 -14 0z"/>
<path d="M3602 309 c-2 -63 1 -79 16 -90 15 -12 16 -12 5 1 -7 9 -14 49 -16
90 l-3 75 -2 -76z"/>
<path d="M4790 365 c0 -8 5 -15 10 -15 6 0 10 7 10 15 0 8 -4 15 -10 15 -5 0
-10 -7 -10 -15z"/>
<path d="M3950 359 c0 -5 5 -7 10 -4 6 3 10 8 10 11 0 2 -4 4 -10 4 -5 0 -10
-5 -10 -11z"/>
<path d="M3466 321 c-3 -5 4 -11 16 -14 30 -8 35 -1 9 12 -11 6 -22 7 -25 2z"/>
<path d="M3942 290 c0 -14 2 -19 5 -12 2 6 2 18 0 25 -3 6 -5 1 -5 -13z"/>
<path d="M2374 145 c0 -55 1 -76 3 -47 2 29 2 74 0 100 -2 26 -3 2 -3 -53z"/>
<path d="M3934 155 c0 -50 1 -71 3 -48 2 23 2 64 0 90 -2 26 -3 8 -3 -42z"/>
<path d="M2651 194 c0 -11 3 -14 6 -6 3 7 2 16 -1 19 -3 4 -6 -2 -5 -13z"/>
<path d="M4782 160 c0 -14 2 -19 5 -12 2 6 2 18 0 25 -3 6 -5 1 -5 -13z"/>
<path d="M3988 43 c7 -3 16 -2 19 1 4 3 -2 6 -13 5 -11 0 -14 -3 -6 -6z"/>
<path d="M4063 33 c15 -2 39 -2 55 0 15 2 2 4 -28 4 -30 0 -43 -2 -27 -4z"/>
<path d="M4283 3 c15 -2 37 -2 50 0 12 2 0 4 -28 4 -27 0 -38 -2 -22 -4z"/>
<path d="M4608 3 c6 -2 18 -2 25 0 6 3 1 5 -13 5 -14 0 -19 -2 -12 -5z"/>
</g>
</svg>
